<?xml version="1.0" encoding="utf-8"?>
<!-- Generator: Adobe Illustrator 25.0.0, SVG Export Plug-In . SVG Version: 6.00 Build 0)  -->
<svg version="1.1" id="Artwork" xmlns="http://www.w3.org/2000/svg" xmlns:xlink="http://www.w3.org/1999/xlink" x="0px" y="0px"
	 width="1080px" height="826px" viewBox="0 0 1080 826" style="enable-background:new 0 0 1080 826;" xml:space="preserve">
<style type="text/css">
	.st0{fill:#FFD9DA;}
	.st1{fill:#FFB2B4;}
	.st2{fill:#FFFFFF;}
	.st3{fill:none;stroke:#FFD9DA;stroke-width:2;stroke-miterlimit:10;}
	.st4{fill:none;stroke:#FFD9DA;stroke-width:2.5;stroke-miterlimit:10;}
	.st5{clip-path:url(#SVGID_2_);}
	.st6{fill:#FF0000;}
	.st7{fill:#FFFFFF;stroke:#FF0000;stroke-width:3;stroke-miterlimit:10;}
	.st8{fill:none;stroke:#FF0000;stroke-width:3;stroke-miterlimit:10;}
	.st9{fill:none;stroke:#FFFFFF;stroke-width:2;stroke-linecap:round;stroke-linejoin:round;}
	.st10{clip-path:url(#SVGID_4_);}
	.st11{fill:none;stroke:#FF0000;stroke-width:2;stroke-linecap:round;stroke-linejoin:round;}
	.st12{clip-path:url(#SVGID_6_);}
	.st13{clip-path:url(#SVGID_8_);}
	.st14{clip-path:url(#SVGID_10_);}
	.st15{clip-path:url(#SVGID_12_);}
</style>
<g id="Layers">
	<g id="Layers-2">
		<g id="graphics">
			<g id="_3-Person">
				<path class="st0" d="M342,331.9c0,0-9.9,40.4-12,45.9c-10,26.8-36.6,65.8-58.3,84.5s-47,32.7-66.3,53.8
					c-24.5,26.8-37.3,65-29.8,100.5c12.8,60.8,69.6,77.4,124.5,76.6c36.8-0.6,77,3,108.3,24.2c24.8,16.8,38.1,42.5,60.4,61.2
					c22.2,18.6,51.1,29.5,80.2,28.8c31.8-0.7,63.3-15.3,85.1-38.4c25.7-27.3,24.7-60.9,34.7-94.8c15.7-53.2,35.7-107.4,71.5-150.7
					c37.2-45,99.1-60.8,129.8-111.8c12.4-20.7,18.2-44.6,16.6-68.7c-1.8-26.9-13.6-53.5-34-71.1c-50.8-43.9-131.9-29.2-175-86.6
					c-15.5-20.6-21.6-46.6-34.3-69c-22.9-40.1-66.7-65-112.4-67.8c-51.6-3.1-113.5,23.8-135.1,72.8c-8.6,19.7-12.6,41.3-13.1,62.7
					C378.6,379.6,342,331.9,342,331.9z"/>
				<path class="st1" d="M505,228.5l-170.1,48.3v177c0,26.1,5.4,52,15.9,75.9C404.6,651.7,505,647.4,505,647.4
					s101.7,4.3,155.2-120.1c9.9-23.2,15-48.1,14.9-73.3V276.7L505,228.5z"/>
				<path class="st2" d="M463.6,238.3c-6.9,0-13.9,1-20.5,3.1c-24-45.2-80.1-62.5-125.4-38.5c-19.8,10.5-35.1,27.8-43.1,48.7
					c-24.6,0.8-46.5,15.9-56,38.6c-23.7-6.1-48,8.2-54.1,31.9c-6.1,23.7,8.2,48,31.9,54.1c3.6,0.9,7.4,1.4,11.1,1.4h256
					c38.5-0.5,69.3-32,68.8-70.5C532,269.3,501.5,238.7,463.6,238.3L463.6,238.3z"/>
				<path class="st3" d="M463.6,238.3c-6.9,0-13.9,1-20.5,3.1c-24-45.2-80.1-62.5-125.4-38.5c-19.8,10.5-35.1,27.8-43.1,48.7
					c-24.6,0.8-46.5,15.9-56,38.6c-23.7-6.1-48,8.2-54.1,31.9c-6.1,23.7,8.2,48,31.9,54.1c3.6,0.9,7.4,1.4,11.1,1.4h256
					c38.5-0.5,69.3-32,68.8-70.5C532,269.3,501.5,238.7,463.6,238.3L463.6,238.3z"/>
				<path class="st2" d="M592,430.5c7.5,0,15,1.1,22.2,3.3c25.9-48.9,86.6-67.5,135.6-41.6c21.4,11.3,37.9,30,46.6,52.6
					c26.6,0.9,50.2,17.2,60.5,41.7c25.7-6.6,51.8,8.9,58.4,34.5s-8.9,51.8-34.5,58.4c-3.9,1-7.9,1.5-11.9,1.5H592
					c-41.6-0.5-74.9-34.6-74.4-76.2C518.1,464,551.1,431,592,430.5L592,430.5z"/>
				<path class="st4" d="M592,430.5c7.5,0,15,1.1,22.2,3.3c25.9-48.9,86.6-67.5,135.6-41.6c21.4,11.3,37.9,30,46.6,52.6
					c26.6,0.9,50.2,17.2,60.5,41.7c25.7-6.6,51.8,8.9,58.4,34.5s-8.9,51.8-34.5,58.4c-3.9,1-7.9,1.5-11.9,1.5H592
					c-41.6-0.5-74.9-34.6-74.4-76.2C518.1,464,551.1,431,592,430.5L592,430.5z"/>
				<g>
					<defs>
						<path id="SVGID_1_" d="M342,331.9c0,0-9.9,40.4-12,45.9c-10,26.8-36.6,65.8-58.3,84.5s-47,32.7-66.3,53.8
							c-24.5,26.8-37.3,65-29.8,100.5c12.8,60.8,69.6,77.4,124.5,76.6c36.8-0.6,77,3,108.3,24.2c24.8,16.8,38.1,42.5,60.4,61.2
							c22.2,18.6,51.1,29.5,80.2,28.8c31.8-0.7,63.3-15.3,85.1-38.4c25.7-27.3,24.7-60.9,34.7-94.8c15.7-53.2,35.7-107.4,71.5-150.7
							c37.2-45,99.1-60.8,129.8-111.8c12.4-20.7,18.2-44.6,16.6-68.7c-1.8-26.9-13.6-53.5-34-71.1c-50.8-43.9-131.9-29.2-175-86.6
							c-15.5-20.6-21.6-46.6-34.3-69c-22.9-40.1-66.7-65-112.4-67.8c-51.6-3.1-113.5,23.8-135.1,72.8c-8.6,19.7-12.6,41.3-13.1,62.7
							C378.6,379.6,342,331.9,342,331.9z"/>
					</defs>
					<clipPath id="SVGID_2_">
						<use xlink:href="#SVGID_1_"  style="overflow:visible;"/>
					</clipPath>
					<g class="st5">
						<path class="st1" d="M189.7,633.5h173.6v-159H189.7V633.5z M613.6,632.8h119.3V523.6H613.6V632.8z M593.7,180.8v161.5h176.4
							V180.8L593.7,180.8z"/>
					</g>
				</g>
				<path class="st6" d="M349.8,635.9c0.1,3.2-0.3,6.4-1.1,9.5c-0.6,2.3-1.6,4.4-3,6.3c-1.2,1.5-2.8,2.8-4.6,3.5
					c-1.8,0.7-3.8,1.1-5.8,1.1c-2,0-3.9-0.3-5.7-1.1c-1.8-0.8-3.3-2-4.5-3.5c-1.4-1.9-2.4-4-3-6.3c-0.8-3.1-1.1-6.3-1.1-9.5
					c-0.1-3.3,0.3-6.6,1-9.9c0.5-2.3,1.6-4.4,3-6.3c1.2-1.5,2.8-2.7,4.6-3.3c1.9-0.7,3.9-1,5.9-1c1.9,0,3.8,0.3,5.6,1
					c1.8,0.7,3.3,1.8,4.5,3.3c1.4,1.9,2.4,4,3,6.3C349.5,629.3,349.9,632.6,349.8,635.9z M341.5,635.9c0-2.3-0.1-4.5-0.3-6.8
					c-0.1-1.5-0.5-2.9-1-4.3c-0.4-0.9-1-1.7-1.8-2.3c-0.8-0.5-1.8-0.7-2.8-0.7c-1,0-2,0.2-2.9,0.7c-0.9,0.5-1.5,1.3-1.9,2.3
					c-0.5,1.4-0.9,2.8-1,4.3c-0.2,2.2-0.3,4.5-0.3,6.7c0,2.2,0.1,4.4,0.3,6.6c0.1,1.5,0.5,2.9,1,4.3c0.4,0.9,1,1.8,1.9,2.3
					c0.9,0.5,1.8,0.7,2.8,0.7c1,0,1.9-0.2,2.8-0.7c0.9-0.6,1.5-1.4,1.9-2.3c0.6-1.4,0.9-2.8,1.1-4.3
					C341.4,640.3,341.5,638.1,341.5,635.9L341.5,635.9z"/>
				<rect x="200.7" y="463.5" class="st7" width="173.6" height="159"/>
				<rect x="255.5" y="509.9" class="st0" width="106" height="98.3"/>
				<rect x="215.1" y="509.8" class="st0" width="26.3" height="31.9"/>
				<rect x="215.1" y="551.1" class="st0" width="26.3" height="57.1"/>
				<rect x="604.7" y="169.8" class="st2" width="176.4" height="161.5"/>
				<rect x="604.7" y="169.8" class="st8" width="176.4" height="161.5"/>
				<rect x="619.9" y="217.7" class="st0" width="106" height="98.3"/>
				<rect x="739.9" y="217.7" class="st0" width="26.3" height="31.9"/>
				<rect x="739.9" y="258.9" class="st0" width="26.3" height="57.1"/>
				<rect x="604.7" y="169.8" class="st6" width="176.4" height="34.3"/>
				<rect x="624.6" y="512.6" class="st7" width="119.3" height="109.2"/>
				<rect x="624.6" y="512.6" class="st6" width="119.3" height="23.2"/>
				<line class="st9" x1="622" y1="524" x2="690" y2="524"/>
				<rect x="200.7" y="463.5" class="st6" width="173.6" height="33.7"/>
				<g>
					<defs>
						<path id="SVGID_3_" d="M463.6,238.4c-6.9,0-13.9,1-20.5,3.1c-24-45.2-80.1-62.5-125.4-38.4c-19.8,10.5-35.1,27.8-43.1,48.7
							c-24.6,0.8-46.5,15.9-56,38.6c-23.8-6.1-48,8.2-54,32c-0.9,3.6-1.4,7.3-1.4,11c0,24.5,21.1,43.3,45.6,43.3h153.6
							c20.7,0,83,1.1,101.2,1.1c38.5-0.5,69.3-32,68.8-70.5C532,269.4,501.4,238.8,463.6,238.4z M200.6,622.5h175.2V462H200.7
							L200.6,622.5z"/>
					</defs>
					<clipPath id="SVGID_4_">
						<use xlink:href="#SVGID_3_"  style="overflow:visible;"/>
					</clipPath>
					<g class="st10">
						<path d="M505.1,228.5L335,276.8v177c0,26.1,5.4,52,15.9,75.9c53.8,122.1,154.2,117.8,154.2,117.8s101.7,4.3,155.2-120.1
							c9.9-23.2,14.9-48.1,14.8-73.3V276.8L505.1,228.5z"/>
					</g>
				</g>
				<path class="st6" d="M514.1,214.5L344,262.8v187c0,26.1,5.4,52,15.9,75.9c53.8,122.1,154.2,117.8,154.2,117.8
					s101.7,4.3,155.2-120.1c9.9-23.2,14.9-48.1,14.8-73.3V262.8L514.1,214.5z"/>
				<path class="st2" d="M514.1,615c-8.1,0-66.8,0.7-110.5-63.5c-20.9-30.9-32-67.3-31.8-104.6V288l142.3-40.4L656.4,288v158.9
					c0.1,37.3-10.9,73.7-31.8,104.6C580.8,615.7,522.2,615,514.1,615z"/>
				<path class="st6" d="M498.3,148.8v-6.2h11.5v-26.2c-0.4,0.9-1,1.6-1.8,2.2c-0.8,0.7-1.8,1.3-2.8,1.8c-1.1,0.5-2.3,0.9-3.4,1.2
					c-1.2,0.3-2.5,0.5-3.8,0.5v-6.3c1.4,0,2.7-0.2,4.1-0.5c1.2-0.3,2.4-0.8,3.4-1.4c1-0.6,1.9-1.3,2.8-2.1c0.8-0.8,1.4-1.7,2-2.7
					h7.8v33.6h9.5v6.2L498.3,148.8z"/>
				<path class="st6" d="M544.5,204.3v-6.1H556v-26.2c-0.4,0.9-1,1.6-1.8,2.2c-0.8,0.7-1.8,1.3-2.8,1.8c-1.1,0.5-2.3,0.9-3.5,1.2
					c-1.2,0.3-2.5,0.5-3.8,0.5v-6.3c1.4,0,2.7-0.2,4.1-0.5c1.2-0.3,2.4-0.8,3.5-1.4c1-0.6,1.9-1.3,2.8-2.1c0.8-0.8,1.5-1.7,2-2.7
					h7.8v33.6h9.5v6.1L544.5,204.3z"/>
				<path class="st6" d="M590.5,99.2v-6.1H602V66.9c-0.4,0.9-1,1.6-1.8,2.2c-0.8,0.7-1.8,1.3-2.8,1.8c-1.1,0.5-2.3,0.9-3.4,1.2
					c-1.3,0.3-2.5,0.5-3.8,0.4v-6.3c1.4,0,2.7-0.2,4.1-0.5c1.2-0.3,2.4-0.8,3.4-1.4c1-0.6,1.9-1.3,2.8-2.1c0.8-0.8,1.4-1.7,2-2.7
					h7.8v33.6h9.5v6.1H590.5z"/>
				<path class="st6" d="M572.9,128.3c0.1,3.2-0.3,6.4-1.1,9.5c-0.6,2.3-1.6,4.4-3,6.3c-1.2,1.5-2.8,2.8-4.6,3.5
					c-3.7,1.4-7.8,1.4-11.5,0c-1.8-0.7-3.3-2-4.5-3.5c-1.4-1.9-2.4-4-2.9-6.3c-0.8-3.1-1.1-6.3-1.1-9.6c-0.1-3.3,0.3-6.6,1-9.9
					c0.5-2.3,1.6-4.4,3-6.3c1.2-1.5,2.8-2.7,4.6-3.3c1.9-0.7,3.9-1,5.9-1c1.9,0,3.8,0.3,5.6,1c1.8,0.7,3.3,1.8,4.5,3.3
					c1.4,1.9,2.4,4,3,6.3C572.7,121.7,573,125,572.9,128.3z M564.6,128.3c0-2.3-0.1-4.5-0.3-6.7c-0.1-1.5-0.5-2.9-1-4.3
					c-0.4-0.9-1-1.7-1.8-2.3c-0.8-0.5-1.8-0.7-2.8-0.7c-1,0-2,0.2-2.9,0.7c-0.9,0.5-1.5,1.3-1.9,2.3c-0.5,1.4-0.9,2.8-1,4.3
					c-0.2,2.2-0.3,4.5-0.3,6.7c0,2.2,0.1,4.4,0.3,6.6c0.1,1.5,0.5,2.9,1,4.3c0.4,1,1,1.8,1.8,2.3c0.9,0.5,1.8,0.7,2.8,0.7
					c1,0,1.9-0.2,2.8-0.7c0.9-0.6,1.5-1.4,1.9-2.3c0.6-1.4,0.9-2.8,1.1-4.3C564.5,132.8,564.6,130.5,564.6,128.3z"/>
				<path class="st6" d="M665.7,128.3c0.1,3.2-0.3,6.4-1.1,9.5c-0.6,2.3-1.6,4.4-3,6.3c-1.2,1.5-2.8,2.8-4.6,3.5
					c-3.7,1.4-7.8,1.4-11.5,0c-1.8-0.7-3.3-2-4.5-3.5c-1.4-1.9-2.4-4-2.9-6.3c-0.8-3.1-1.1-6.3-1.1-9.6c-0.1-3.3,0.3-6.6,1-9.9
					c0.5-2.3,1.6-4.4,3-6.3c1.2-1.5,2.8-2.7,4.6-3.3c1.9-0.7,3.9-1,5.9-1c1.9,0,3.8,0.3,5.6,1c1.8,0.7,3.3,1.8,4.5,3.3
					c1.4,1.9,2.4,4,3,6.3C665.4,121.7,665.8,125,665.7,128.3z M657.4,128.3c0-2.3-0.1-4.5-0.3-6.7c-0.1-1.5-0.5-2.9-1-4.3
					c-0.4-0.9-1-1.7-1.8-2.3c-0.8-0.5-1.8-0.7-2.8-0.7c-1,0-2,0.2-2.9,0.7c-0.9,0.5-1.5,1.3-1.9,2.3c-0.5,1.4-0.9,2.8-1,4.3
					c-0.2,2.2-0.3,4.5-0.3,6.7c0,2.2,0.1,4.4,0.3,6.6c0.1,1.5,0.5,2.9,1,4.3c0.4,1,1,1.8,1.9,2.3c0.9,0.5,1.8,0.7,2.8,0.7
					c1,0,1.9-0.2,2.8-0.7c0.9-0.6,1.5-1.4,1.9-2.3c0.5-1.4,0.9-2.8,1-4.3C657.3,132.8,657.4,130.6,657.4,128.3z"/>
				<path class="st6" d="M665.7,37c0.1,3.2-0.3,6.4-1.1,9.5c-0.6,2.3-1.6,4.4-3,6.3c-1.2,1.5-2.8,2.8-4.6,3.5
					c-1.8,0.7-3.8,1.1-5.8,1.1c-2,0-3.9-0.3-5.7-1.1c-1.8-0.7-3.4-1.9-4.5-3.5c-1.4-1.9-2.4-4-2.9-6.3c-0.8-3.1-1.1-6.3-1.1-9.6
					c-0.1-3.3,0.2-6.6,1-9.9c0.5-2.3,1.6-4.4,3-6.3c1.2-1.5,2.8-2.7,4.6-3.3c1.9-0.7,3.9-1,5.9-1c1.9,0,3.8,0.3,5.6,1
					c1.8,0.7,3.3,1.8,4.5,3.3c1.4,1.9,2.4,4,3,6.3C665.4,30.4,665.8,33.7,665.7,37z M657.4,37c0-2.3-0.1-4.5-0.3-6.8
					c-0.1-1.5-0.5-2.9-1-4.3c-0.4-0.9-1-1.7-1.8-2.3c-0.8-0.5-1.8-0.7-2.8-0.7c-1,0-2,0.2-2.9,0.7c-0.9,0.5-1.5,1.3-1.9,2.3
					c-0.5,1.4-0.9,2.8-1,4.3c-0.2,2.2-0.3,4.5-0.3,6.7c0,2.2,0.1,4.4,0.3,6.6c0.1,1.5,0.5,2.9,1,4.3c0.4,1,1,1.8,1.9,2.3
					c0.9,0.5,1.8,0.7,2.8,0.7c1,0,1.9-0.2,2.8-0.7c0.8-0.5,1.5-1.3,1.9-2.3c0.6-1.4,0.9-2.8,1.1-4.3C657.3,41.5,657.4,39.2,657.4,37
					z"/>
				<path class="st6" d="M355.3,716.7v-6.2h11.5v-26.2c-0.4,0.8-1,1.6-1.8,2.2c-0.8,0.7-1.8,1.3-2.8,1.8c-1.1,0.5-2.3,0.9-3.5,1.2
					c-1.2,0.3-2.5,0.5-3.8,0.5v-6.3c1.4,0,2.7-0.2,4.1-0.5c1.2-0.3,2.4-0.8,3.5-1.4c1-0.6,1.9-1.3,2.8-2.1c0.8-0.8,1.5-1.7,2-2.7
					h7.8v33.6h9.5v6.2L355.3,716.7z"/>
				<path class="st6" d="M385.9,779.9v-6.2h11.5v-26.2c-0.4,0.9-1,1.6-1.8,2.2c-0.8,0.7-1.8,1.3-2.8,1.8c-1.1,0.5-2.3,0.9-3.5,1.2
					c-1.2,0.3-2.5,0.5-3.8,0.5v-6.3c1.4,0,2.7-0.2,4.1-0.5c1.2-0.3,2.4-0.8,3.5-1.4c1-0.6,1.9-1.3,2.8-2.1c0.8-0.8,1.5-1.7,2-2.7
					h7.8v33.6h9.5v6.2H385.9z"/>
				<path class="st6" d="M453,696.3c0.1,3.2-0.3,6.4-1.1,9.5c-0.6,2.3-1.6,4.4-3,6.3c-1.2,1.5-2.8,2.8-4.6,3.5
					c-3.7,1.4-7.8,1.4-11.5,0c-1.8-0.7-3.3-2-4.5-3.5c-1.4-1.9-2.4-4-2.9-6.3c-0.8-3.1-1.1-6.3-1.1-9.6c-0.1-3.3,0.3-6.6,1-9.9
					c0.5-2.3,1.6-4.4,3-6.3c1.2-1.5,2.8-2.7,4.6-3.3c1.9-0.7,3.9-1,5.9-1c1.9,0,3.8,0.3,5.6,1c1.8,0.7,3.3,1.8,4.5,3.3
					c1.4,1.9,2.4,4,3,6.3C452.7,689.6,453.1,692.9,453,696.3z M444.7,696.3c0-2.3-0.1-4.5-0.3-6.7c-0.1-1.5-0.5-2.9-1-4.3
					c-0.4-0.9-1-1.7-1.8-2.3c-0.8-0.5-1.8-0.7-2.8-0.7c-1,0-2,0.2-2.9,0.7c-0.9,0.5-1.5,1.4-1.9,2.3c-0.5,1.4-0.9,2.8-1,4.3
					c-0.2,2.2-0.3,4.5-0.3,6.7c0,2.2,0.1,4.4,0.3,6.6c0.1,1.5,0.5,2.9,1,4.3c0.4,1,1,1.8,1.9,2.3c0.9,0.5,1.8,0.7,2.8,0.7
					c1,0,1.9-0.2,2.8-0.7c0.8-0.6,1.5-1.4,1.9-2.3c0.6-1.4,0.9-2.8,1.1-4.3C444.6,700.7,444.7,698.5,444.7,696.3L444.7,696.3z"/>
				<path class="st6" d="M385.9,656.4v-6.2h11.5V624c-0.4,0.9-1,1.6-1.8,2.2c-0.8,0.7-1.8,1.3-2.8,1.8c-1.1,0.5-2.3,0.9-3.5,1.2
					c-1.2,0.3-2.5,0.5-3.8,0.5v-6.3c1.4,0,2.7-0.2,4.1-0.5c1.2-0.3,2.4-0.8,3.5-1.4c1-0.6,1.9-1.3,2.8-2.1c0.8-0.8,1.5-1.7,2-2.7
					h7.8v33.6h9.5v6.2L385.9,656.4z"/>
				<path class="st6" d="M315.2,696.3c0.1,3.2-0.3,6.4-1.1,9.5c-0.6,2.3-1.6,4.4-3,6.3c-1.2,1.5-2.8,2.8-4.6,3.5
					c-3.7,1.4-7.8,1.4-11.5,0c-1.8-0.7-3.3-2-4.5-3.5c-1.4-1.9-2.4-4-3-6.3c-0.8-3.1-1.1-6.3-1.1-9.6c-0.1-3.3,0.3-6.6,1-9.9
					c0.5-2.3,1.6-4.4,3-6.3c1.2-1.5,2.8-2.7,4.6-3.3c1.9-0.7,3.9-1,5.9-1c1.9,0,3.8,0.3,5.6,1c1.8,0.7,3.3,1.8,4.5,3.3
					c1.4,1.9,2.4,4,3,6.3C315,689.6,315.3,692.9,315.2,696.3z M306.9,696.3c0-2.3-0.1-4.5-0.3-6.7c-0.1-1.5-0.5-2.9-1-4.3
					c-0.4-0.9-1-1.7-1.9-2.3c-0.8-0.5-1.8-0.7-2.8-0.7c-1,0-2.1,0.2-3,0.7c-0.9,0.5-1.5,1.3-1.9,2.3c-0.5,1.4-0.9,2.8-1,4.3
					c-0.2,2.2-0.3,4.5-0.3,6.7c0,2.2,0.1,4.4,0.3,6.6c0.1,1.5,0.5,2.9,1,4.3c0.4,1,1,1.8,1.9,2.3c0.9,0.5,1.8,0.7,2.8,0.7
					c1,0,1.9-0.2,2.8-0.7c0.9-0.6,1.5-1.4,1.9-2.3c0.6-1.4,0.9-2.8,1.1-4.3C306.8,700.7,306.9,698.5,306.9,696.3z"/>
				<line class="st9" x1="215.6" y1="480.4" x2="289.6" y2="480.4"/>
				<line class="st9" x1="619.3" y1="186.9" x2="698.5" y2="186.9"/>
				<circle class="st2" cx="710.4" cy="524" r="4.9"/>
				<circle class="st2" cx="729.4" cy="524" r="4.9"/>
				<circle class="st2" cx="745.3" cy="186.9" r="4.9"/>
				<circle class="st2" cx="764.3" cy="186.9" r="4.9"/>
				<line class="st11" x1="684.2" y1="585.3" x2="684.2" y2="568.6"/>
				<line class="st11" x1="661.4" y1="587.6" x2="661.4" y2="644.1"/>
				<line class="st11" x1="707.1" y1="643.2" x2="707.1" y2="606.9"/>
				<line class="st11" x1="684.2" y1="657" x2="684.2" y2="604.7"/>
				<line class="st11" x1="272.2" y1="389.5" x2="272.2" y2="421.2"/>
				<line class="st11" x1="295" y1="400.2" x2="295" y2="324.7"/>
				<line class="st11" x1="249.4" y1="325.6" x2="249.4" y2="362"/>
				<line class="st11" x1="272.2" y1="311.9" x2="272.2" y2="364.2"/>
				<polygon class="st6" points="305.7,222.5 305.7,261.2 272.2,280.5 238.7,261.2 238.7,222.5 272.2,203.1 				"/>
				<g>
					<defs>
						<polygon id="SVGID_5_" points="305.7,222.5 305.7,261.2 272.2,280.5 238.7,261.2 238.7,222.5 272.2,203.1 						"/>
					</defs>
					<clipPath id="SVGID_6_">
						<use xlink:href="#SVGID_5_"  style="overflow:visible;"/>
					</clipPath>
					<g class="st12">
						<line class="st9" x1="238.7" y1="222.5" x2="272.2" y2="241.8"/>
						<line class="st9" x1="272.2" y1="241.8" x2="272.2" y2="286.7"/>
						<line class="st9" x1="305.7" y1="222.5" x2="272.2" y2="241.8"/>
					</g>
				</g>
				<g>
					<defs>
						<polygon id="SVGID_7_" points="305.7,222.5 305.7,261.2 272.2,280.5 238.7,261.2 238.7,222.5 272.2,203.1 						"/>
					</defs>
					<clipPath id="SVGID_8_">
						<use xlink:href="#SVGID_7_"  style="overflow:visible;"/>
					</clipPath>
					<g class="st13">
						<path d="M245.1,192.1c-2,2.2-2.9,6.5-3.8,9.2c-1.8,5.7-3.3,11.7-3.4,17.7c-0.1,8.3,5.3,16.1,10.5,22.1
							c5,5.8,11.6,10.1,16.3,16.3c0.8,1.1,1.6,2.3,2.3,3.5c4,7.5,5.2,16.2,4.4,24.6c0,0.4-0.1,2.9-0.8,2.9l-45.4,1.6l-3.5-96.9
							C221.7,193.1,245.9,191.2,245.1,192.1z"/>
					</g>
				</g>
				<polygon class="st6" points="718,684.7 718,723.4 684.5,742.7 651,723.4 651,684.7 684.5,665.3 				"/>
				<g>
					<defs>
						<polygon id="SVGID_9_" points="718,684.7 718,723.4 684.5,742.7 651,723.4 651,684.7 684.5,665.3 						"/>
					</defs>
					<clipPath id="SVGID_10_">
						<use xlink:href="#SVGID_9_"  style="overflow:visible;"/>
					</clipPath>
					<g class="st14">
						<line class="st9" x1="651" y1="684.7" x2="684.5" y2="704"/>
						<line class="st9" x1="684.5" y1="704" x2="684.5" y2="748.9"/>
						<line class="st9" x1="718" y1="684.7" x2="684.5" y2="704"/>
					</g>
				</g>
				<g>
					<defs>
						<polygon id="SVGID_11_" points="718,684.7 718,723.4 684.5,742.7 651,723.4 651,684.7 684.5,665.3 						"/>
					</defs>
					<clipPath id="SVGID_12_">
						<use xlink:href="#SVGID_11_"  style="overflow:visible;"/>
					</clipPath>
					<g class="st15">
						<path d="M657.3,654.3c-2,2.2-2.9,6.5-3.8,9.2c-1.8,5.7-3.3,11.7-3.4,17.7c-0.1,8.3,5.3,16.1,10.5,22.1
							c5,5.8,11.7,10.1,16.3,16.3c0.8,1.1,1.6,2.3,2.3,3.5c4,7.5,5.2,16.2,4.4,24.6c0,0.4-0.1,2.9-0.8,2.9l-45.4,1.6l-3.5-96.9
							C634,655.3,658.2,653.5,657.3,654.3z"/>
					</g>
				</g>
				<path class="st6" d="M355.3,716.7v-6.2h11.5v-26.2c-0.4,0.8-1,1.6-1.8,2.2c-0.8,0.7-1.8,1.3-2.8,1.8c-1.1,0.5-2.3,0.9-3.5,1.2
					c-1.2,0.3-2.5,0.5-3.8,0.5v-6.3c1.4,0,2.7-0.2,4.1-0.5c1.2-0.3,2.4-0.8,3.5-1.4c1-0.6,1.9-1.3,2.8-2.1c0.8-0.8,1.5-1.7,2-2.7
					h7.8v33.6h9.5v6.2L355.3,716.7z"/>
				<path class="st0" d="M513.1,614c-20.2-0.1-70.2-6.6-108.7-63c-20.7-30.3-31.6-66.3-31.6-104.1V288.8L513.1,249V614z"/>
				<path class="st2" d="M512.1,250.3V613c-20.6-0.3-69.2-7.4-106.9-62.6c-20.6-30.2-31.5-66-31.5-103.5V289.6L512.1,250.3
					 M514.1,247.7L371.7,288v158.9c-0.2,37.3,10.9,73.7,31.8,104.6c42.9,62.8,100,63.5,110,63.5h0.5V247.7L514.1,247.7z"/>
				<circle class="st2" cx="307.9" cy="480.4" r="4.9"/>
				<circle class="st2" cx="326.9" cy="480.4" r="4.9"/>
			</g>
		</g>
	</g>
</g>
</svg>
